<?xml version="1.0" encoding="UTF-8"?>
<svg id="Layer_2" data-name="Layer 2" xmlns="http://www.w3.org/2000/svg" viewBox="0 0 140.67 670.02">
  <defs>
    <style>
      .cls-1 {
        fill: #e9c5a4;
      }
    </style>
  </defs>
  <g id="Layer_2-2" data-name="Layer 2">
    <g>
      <path class="cls-1" d="M95.58,600.56c5.18-28.5,5.83-71.36-20.5-113.71-22.18-35.68-32.05-70.96-29.34-104.89,2.5-31.34,15.07-55.9,24.31-71.65,29.2-49.77,19.4-115.32-6.43-147.52-29.35-36.58-38.85-75.05-28.25-114.34C42.79,20.94,58.01,2.54,60.2,0h-12.68c-6.14,8.51-15.93,24.35-21.68,45.42-8.02,29.35-9.33,74.62,29.99,123.63,12.31,15.34,20.24,38.4,21.76,63.26,1.62,26.51-4.11,52.42-16.16,72.94-9.74,16.6-22.99,42.52-25.66,75.92-2.88,36.1,7.49,73.43,30.82,110.96,24.65,39.64,24.02,79.88,19.16,106.64-5.83,32.06-20.28,58.88-32.02,71.24h13.04c10.84-14.33,23.23-38.7,28.82-69.45Z"/>
      <path class="cls-1" d="M45.47,670.01c10.84-14.33,23.23-38.7,28.82-69.45,5.18-28.5,5.83-71.36-20.5-113.71-22.18-35.68-32.05-70.96-29.34-104.89,2.5-31.34,15.08-55.9,24.31-71.65,29.2-49.77,19.4-115.32-6.43-147.52C12.97,126.21,3.47,87.74,14.07,48.45,21.49,20.95,36.7,2.56,38.9,0h-12.68C20.07,8.51,10.29,24.35,4.53,45.42c-8.02,29.35-9.33,74.62,29.99,123.63,12.31,15.34,20.24,38.4,21.76,63.26,1.62,26.51-4.11,52.42-16.15,72.94-9.74,16.6-22.99,42.52-25.66,75.92-2.88,36.1,7.49,73.43,30.82,110.96,24.65,39.64,24.02,79.88,19.16,106.65-5.83,32.06-20.28,58.88-32.02,71.24h0s0,0,0,0h13.04Z"/>
      <path class="cls-1" d="M117.32,486.85c-22.18-35.68-32.05-70.96-29.34-104.89,2.5-31.34,15.08-55.9,24.31-71.65,29.2-49.77,19.4-115.32-6.43-147.52-29.35-36.58-38.85-75.05-28.25-114.34C85.03,20.94,100.25,2.54,102.44,0h-12.68c-6.14,8.51-15.92,24.35-21.68,45.42-8.02,29.35-9.33,74.62,29.99,123.63,12.31,15.34,20.24,38.4,21.76,63.26,1.62,26.51-4.11,52.42-16.15,72.94-9.74,16.6-22.99,42.52-25.66,75.92-2.88,36.1,7.49,73.43,30.82,110.96,24.65,39.64,24.02,79.88,19.16,106.65-5.83,32.06-20.28,58.88-32.02,71.24h13.04c10.84-14.33,23.23-38.7,28.82-69.45,5.18-28.5,5.83-71.36-20.5-113.71Z"/>
      <path class="cls-1" d="M117.85,600.56c5.18-28.5,5.83-71.36-20.5-113.71-22.18-35.68-32.05-70.96-29.34-104.89,2.5-31.34,15.07-55.9,24.31-71.65,29.2-49.77,19.4-115.32-6.43-147.52-29.35-36.58-38.85-75.05-28.25-114.34C65.06,20.94,80.28,2.54,82.46,0h-12.68c-6.14,8.51-15.93,24.35-21.68,45.42-8.02,29.35-9.33,74.62,29.99,123.63,12.31,15.34,20.24,38.4,21.76,63.26,1.62,26.51-4.11,52.42-16.16,72.94-9.74,16.6-22.99,42.52-25.66,75.92-2.88,36.1,7.49,73.43,30.82,110.96,24.65,39.64,24.02,79.88,19.16,106.64-5.83,32.06-20.28,58.88-32.02,71.24h13.04c10.84-14.33,23.23-38.7,28.82-69.45Z"/>
    </g>
  </g>
</svg>