<?xml version="1.0" encoding="UTF-8"?>
<svg id="Layer_2" data-name="Layer 2" xmlns="http://www.w3.org/2000/svg" viewBox="0 0 139.83 670.41">
  <defs>
    <style>
      .cls-1 {
        fill: #e9c5a4;
      }
    </style>
  </defs>
  <g id="Layer_2-2" data-name="Layer 2">
    <g>
      <path class="cls-1" d="M24.44,382.28c2.5-31.34,15.08-55.9,24.31-71.65,29.2-49.77,19.4-115.32-6.43-147.52C12.97,126.53,3.47,88.06,14.07,48.77,22.04,19.23,39,.19,39.17,0h-12.73C20.31,8.43,10.36,24.4,4.53,45.73c-8.02,29.35-9.33,74.62,29.99,123.63,12.31,15.34,20.24,38.4,21.76,63.26,1.62,26.51-4.11,52.42-16.15,72.94-9.74,16.6-22.99,42.52-25.66,75.92-2.88,36.1,7.49,73.43,30.82,110.96,24.65,39.64,24.02,79.88,19.16,106.65-5.83,32.06-27.18,58.88-38.92,71.24h13.04c10.84-14.33,30.13-38.7,35.72-69.45,5.18-28.5,5.83-71.36-20.5-113.71-22.18-35.68-32.05-70.96-29.34-104.89Z"/>
      <path class="cls-1" d="M45.73,382.36c2.5-31.34,15.08-55.9,24.31-71.65,29.2-49.77,19.4-115.32-6.43-147.52-29.35-36.58-38.85-75.05-28.25-114.34C43.34,19.32,60.3,.28,60.47,.09h-12.73c-6.13,8.43-16.08,24.4-21.91,45.73-8.02,29.35-9.33,74.62,29.99,123.63,12.31,15.34,20.24,38.4,21.76,63.26,1.62,26.51-4.11,52.42-16.15,72.94-9.74,16.6-22.99,42.52-25.66,75.92-2.88,36.1,7.49,73.43,30.82,110.96,24.65,39.64,24.02,79.88,19.16,106.65-5.83,32.06-27.18,58.88-38.92,71.24h13.04c10.84-14.33,30.13-38.7,35.72-69.45,5.18-28.5,5.83-71.36-20.5-113.71-22.18-35.68-32.05-70.96-29.34-104.89Z"/>
      <path class="cls-1" d="M67.86,382.36c2.5-31.34,15.08-55.9,24.31-71.65,29.2-49.77,19.4-115.32-6.43-147.52-29.35-36.58-38.85-75.05-28.25-114.34C65.47,19.32,82.43,.28,82.6,.09h-12.73c-6.13,8.43-16.08,24.4-21.91,45.73-8.02,29.35-9.33,74.62,29.99,123.63,12.31,15.34,20.24,38.4,21.76,63.26,1.62,26.51-4.11,52.42-16.15,72.94-9.74,16.6-22.99,42.52-25.66,75.92-2.88,36.1,7.49,73.43,30.82,110.96,24.65,39.64,24.02,79.88,19.16,106.65-5.83,32.06-27.18,58.88-38.92,71.24h13.04c10.84-14.33,30.13-38.7,35.72-69.45,5.18-28.5,5.83-71.36-20.5-113.71-22.18-35.68-32.05-70.96-29.34-104.89Z"/>
      <path class="cls-1" d="M87.14,382.36c2.5-31.34,15.08-55.9,24.31-71.65,29.2-49.77,19.4-115.32-6.43-147.52-29.35-36.58-38.85-75.05-28.25-114.34C84.74,19.32,101.7,.28,101.87,.09h-12.73c-6.13,8.43-16.08,24.4-21.91,45.73-8.02,29.35-9.33,74.62,29.99,123.63,12.31,15.34,20.24,38.4,21.76,63.26,1.62,26.51-4.11,52.42-16.15,72.94-9.74,16.6-22.99,42.52-25.66,75.92-2.88,36.1,7.49,73.43,30.82,110.96,24.65,39.64,24.02,79.88,19.16,106.65-5.83,32.06-27.18,58.88-38.92,71.24h13.04c10.84-14.33,30.13-38.7,35.72-69.45,5.18-28.5,5.83-71.36-20.5-113.71-22.18-35.68-32.05-70.96-29.34-104.89Z"/>
    </g>
  </g>
</svg>